<?xml version="1.0" encoding="iso-8859-1"?>
<!-- Generator: Adobe Illustrator 19.0.0, SVG Export Plug-In . SVG Version: 6.00 Build 0)  -->
<svg version="1.1" id="Layer_1" xmlns="http://www.w3.org/2000/svg" xmlns:xlink="http://www.w3.org/1999/xlink" x="0px" y="0px"
	 viewBox="0 0 512.003 512.003" style="enable-background:new 0 0 512.003 512.003;" xml:space="preserve">
<path style="fill:#507C5C;" d="M252.043,107.452c-15.689-19.797-39.174-31.151-64.434-31.151h-8.985l38.988-38.988
	c5.979-5.979,5.979-15.674,0-21.655c-5.979-5.979-15.674-5.979-21.655,0l-25.614,25.614V15.311C170.344,6.855,163.489,0,155.033,0
	c-8.456,0-15.311,6.855-15.311,15.311v25.96L114.11,15.659c-5.979-5.979-15.674-5.979-21.655,0c-5.979,5.979-5.979,15.674,0,21.655
	l38.988,38.988h-8.985c-25.26,0-48.746,11.355-64.434,31.152c-15.689,19.797-21.376,45.255-15.619,69.788l72.933,316.41
	c1.632,7.083,7.936,11.875,14.907,11.875c1.139,0,2.297-0.129,3.453-0.395c8.24-1.9,13.38-10.119,11.482-18.36l-32.645-141.632
	h30.342c8.456,0,15.311-6.855,15.311-15.311s-6.855-15.311-15.311-15.311h-37.402l-16.711-72.502h54.111
	c8.456,0,15.311-6.855,15.311-15.311s-6.855-15.311-15.311-15.311H81.706l-9.472-41.094c-3.621-15.432-0.054-31.408,9.793-43.83
	c9.845-12.424,24.584-19.549,40.435-19.549h65.148c15.852,0,30.589,7.124,40.434,19.548c9.845,12.423,13.414,28.399,9.793,43.831
	c-1.932,8.231,3.176,16.472,11.408,18.404c8.23,1.934,16.472-3.176,18.404-11.408C273.42,152.708,267.732,127.25,252.043,107.452z"
	/>
<path style="fill:#CFF09E;" d="M396.64,236.031l-63.246,18.248c-7.305,3.134-15.576,3.134-22.881,0l-63.246-18.248
	c-33.022-9.528-64.719,18.565-59.23,52.491l22.567,168.775c4.867,30.08,36.706,47.581,64.71,35.568l46.638-20.006l46.638,20.006
	c28.004,12.013,59.842-5.488,64.71-35.568l22.567-168.775C461.36,254.596,429.662,226.503,396.64,236.031z"/>
<path style="fill:#507C5C;" d="M457.032,240.828c-11.894-13.973-29.117-21.988-47.25-21.988c-5.832,0-11.681,0.834-17.386,2.48
	l-55.129,15.907v-54.258c0-8.456-6.855-15.311-15.311-15.311s-15.311,6.855-15.311,15.311v54.26l-55.129-15.907
	c-5.705-1.646-11.554-2.48-17.384-2.48c-18.136,0-35.36,8.014-47.252,21.987c-11.734,13.785-16.825,31.967-13.988,49.918
	l22.543,168.582c0.018,0.139,0.038,0.279,0.061,0.416c4.9,30.279,30.708,52.257,61.366,52.257c8.421,0,16.662-1.704,24.496-5.063
	l40.602-17.417l40.602,17.417c7.832,3.359,16.074,5.063,24.495,5.065c0.002,0,0.003,0,0.005,0c30.656,0,56.462-21.978,61.361-52.259
	c0.023-0.138,0.043-0.277,0.061-0.416l22.543-168.582C473.859,272.795,468.766,254.613,457.032,240.828z M440.756,286.077
	c-0.023,0.138-0.043,0.277-0.061,0.416l-22.537,168.546c-2.563,15.274-15.613,26.34-31.102,26.34h-0.002
	c-4.249,0-8.429-0.87-12.425-2.585l-46.638-20.006c-1.928-0.827-3.982-1.24-6.036-1.24c-2.053,0-4.11,0.413-6.036,1.24
	l-46.636,20.006c-3.998,1.715-8.178,2.585-12.425,2.585c-15.49,0-28.542-11.067-31.105-26.34l-22.537-168.546
	c-0.018-0.139-0.038-0.279-0.061-0.416c-1.502-9.282,0.998-18.303,7.042-25.401c6.066-7.126,14.789-11.214,23.934-11.214
	c2.96,0,5.951,0.43,8.896,1.28l62.425,18.012c5.106,2.05,10.545,3.099,15.994,3.16c0.171,0.006,0.338,0.026,0.511,0.026
	s0.341-0.02,0.513-0.026c5.448-0.063,10.886-1.11,15.993-3.16l62.425-18.012c2.944-0.85,5.936-1.28,8.897-1.28
	c9.144,0,17.867,4.087,23.933,11.214C439.756,267.776,442.258,276.796,440.756,286.077z"/>
<g>
</g>
<g>
</g>
<g>
</g>
<g>
</g>
<g>
</g>
<g>
</g>
<g>
</g>
<g>
</g>
<g>
</g>
<g>
</g>
<g>
</g>
<g>
</g>
<g>
</g>
<g>
</g>
<g>
</g>
</svg>
